<svg width="23" height="35" viewBox="0 0 23 35" fill="none" xmlns="http://www.w3.org/2000/svg">
<path d="M22.4168 16.9816L17.4942 8.54592L13.2338 1.11396C13.1455 0.961566 13.0175 0.834119 12.8627 0.744226C12.7078 0.654332 12.5314 0.605104 12.3508 0.60141H1.46804C1.2801 0.608969 1.09802 0.666885 0.942109 0.768698C0.786199 0.870513 0.662586 1.01222 0.585054 1.17803C0.492092 1.35312 0.443604 1.54713 0.443604 1.74397C0.443604 1.94081 0.492092 2.13481 0.585054 2.30991L9.41488 17.5582L0.982398 32.5076C0.889572 32.6789 0.841084 32.8694 0.841084 33.0628C0.841084 33.2563 0.889572 33.4468 0.982398 33.6181C1.06302 33.7858 1.18416 33.9323 1.33559 34.0452C1.40885 34.0358 1.48308 34.0358 1.55634 34.0452C1.65912 34.0547 1.76259 34.0547 1.86538 34.0452H12.9027C13.0889 34.042 13.2704 33.9883 13.4265 33.8901C13.5826 33.7919 13.7071 33.6533 13.7856 33.49L17.7812 26.3783L22.4168 18.1989C22.5193 18.019 22.573 17.817 22.573 17.6116C22.573 17.4063 22.5193 17.2042 22.4168 17.0243" fill="#FFE600"/>
</svg>
