<svg width="18" height="35" viewBox="0 0 18 35" fill="none" xmlns="http://www.w3.org/2000/svg">
<path d="M17.1912 32.529L8.36137 17.4088L16.7718 2.30997C16.8595 2.13717 16.9051 1.94722 16.9051 1.75471C16.9051 1.56221 16.8595 1.37226 16.7718 1.19945C16.6965 1.03214 16.5733 0.889057 16.417 0.786943C16.2606 0.68483 16.0774 0.627906 15.8888 0.622833H4.85154C4.66878 0.628654 4.49086 0.681101 4.3358 0.77486C4.18074 0.868619 4.05404 1.00036 3.96852 1.15674L0.81189 6.94427L6.19807 16.2128C6.432 16.6174 6.55485 17.0733 6.55485 17.5369C6.55485 18.0005 6.432 18.4564 6.19807 18.861L1.16505 27.9374L4.56457 33.7249C4.64928 33.8757 4.77335 34.0023 4.92439 34.0922C5.07542 34.1822 5.24818 34.2322 5.42546 34.2375H16.4407C16.6307 34.2269 16.8144 34.168 16.9732 34.0667C17.1321 33.9655 17.2606 33.8255 17.3458 33.6609C17.4387 33.4858 17.4872 33.2918 17.4872 33.0949C17.4872 32.8981 17.4387 32.7041 17.3458 32.529" fill="#FFE600"/>
</svg>
